HIERARCHY
ROOT Hips
{
	OFFSET 0.000000 100.481300 0.000000
	CHANNELS 6 Xposition Yposition Zposition Xrotation Yrotation Zrotation 
	JOINT Spine
	{
		OFFSET -0.279200 12.230698 -2.892100
		CHANNELS 3 Xrotation Yrotation Zrotation
		JOINT Spine1
		{
			OFFSET -0.232667 10.192268 -1.242267
			CHANNELS 3 Xrotation Yrotation Zrotation
			JOINT Spine1_split
			{
				OFFSET -0.232667 10.192268 -1.242267
				CHANNELS 3 Xrotation Yrotation Zrotation
				JOINT Spine2
				{
					OFFSET -0.232667 10.192268 -1.242267
					CHANNELS 3 Xrotation Yrotation Zrotation
					JOINT Neck
					{
						OFFSET -0.418800 17.814194 8.416900
						CHANNELS 3 Xrotation Yrotation Zrotation
						JOINT Head
						{
							OFFSET 0.000000 7.031097 3.806800
							CHANNELS 3 Xrotation Yrotation Zrotation
							JOINT HeadTop_End
							{
								OFFSET 0.000000 24.646606 12.978600
								CHANNELS 3 Xrotation Yrotation Zrotation
								End Site
								{
									OFFSET 0.000000 0.000000 0.000000
								}
							}
						}
					}
					JOINT LeftShoulder
					{
						OFFSET 8.476499 7.247704 -3.868750
						CHANNELS 3 Xrotation Yrotation Zrotation
						JOINT LeftShoulder_split
						{
							OFFSET 8.476499 7.247704 -3.868750
							CHANNELS 3 Xrotation Yrotation Zrotation
							JOINT LeftArm
							{
								OFFSET 9.308998 -2.777710 0.208600
								CHANNELS 3 Xrotation Yrotation Zrotation
								JOINT LeftForeArm
								{
									OFFSET 29.972298 0.000000 0.000000
									CHANNELS 3 Xrotation Yrotation Zrotation
									JOINT LeftHand
									{
										OFFSET 26.026505 0.000000 0.000000
										CHANNELS 3 Xrotation Yrotation Zrotation
										JOINT LeftHandThumb1
										{
											OFFSET 12.240501 -7.147949 9.207150
											CHANNELS 3 Xrotation Yrotation Zrotation
											JOINT LeftHandThumb2
											{
												OFFSET 4.138618 -2.389435 2.389433
												CHANNELS 3 Xrotation Yrotation Zrotation
												JOINT LeftHandThumb3
												{
													OFFSET 2.726913 -1.574387 1.574386
													CHANNELS 3 Xrotation Yrotation Zrotation
													JOINT LeftHandThumb4
													{
														OFFSET 3.941010 -2.275345 2.275342
														CHANNELS 3 Xrotation Yrotation Zrotation
														End Site
														{
															OFFSET 0.000000 0.000000 0.000000
														}
													}
												}
											}
										}
										JOINT LeftHandIndex1
										{
											OFFSET 24.424698 -1.985611 5.953459
											CHANNELS 3 Xrotation Yrotation Zrotation
											JOINT LeftHandIndex2
											{
												OFFSET 6.426697 0.000000 0.000000
												CHANNELS 3 Xrotation Yrotation Zrotation
												JOINT LeftHandIndex3
												{
													OFFSET 5.337898 0.000000 0.000000
													CHANNELS 3 Xrotation Yrotation Zrotation
													JOINT LeftHandIndex4
													{
														OFFSET 4.409401 0.000000 0.000000
														CHANNELS 3 Xrotation Yrotation Zrotation
														End Site
														{
															OFFSET 0.000000 0.000000 0.000000
														}
													}
												}
											}
										}
										JOINT LeftHandMiddle1
										{
											OFFSET 23.810104 0.000000 0.000000
											CHANNELS 3 Xrotation Yrotation Zrotation
											JOINT LeftHandMiddle2
											{
												OFFSET 7.176498 0.000000 0.000000
												CHANNELS 3 Xrotation Yrotation Zrotation
												JOINT LeftHandMiddle3
												{
													OFFSET 6.774902 0.000000 0.000000
													CHANNELS 3 Xrotation Yrotation Zrotation
													JOINT LeftHandMiddle4
													{
														OFFSET 5.403328 0.000000 0.000000
														CHANNELS 3 Xrotation Yrotation Zrotation
														End Site
														{
															OFFSET 0.000000 0.000000 0.000000
														}
													}
												}
											}
										}
										JOINT LeftHandRing1
										{
											OFFSET 22.908401 -0.839279 -6.020567
											CHANNELS 3 Xrotation Yrotation Zrotation
											JOINT LeftHandRing2
											{
												OFFSET 6.337502 0.000000 0.000000
												CHANNELS 3 Xrotation Yrotation Zrotation
												JOINT LeftHandRing3
												{
													OFFSET 5.779297 0.000000 0.000000
													CHANNELS 3 Xrotation Yrotation Zrotation
													JOINT LeftHandRing4
													{
														OFFSET 4.965698 0.000000 0.000000
														CHANNELS 3 Xrotation Yrotation Zrotation
														End Site
														{
															OFFSET 0.000000 0.000000 0.000000
														}
													}
												}
											}
										}
										JOINT LeftHandPinky1
										{
											OFFSET 20.037003 -1.530319 -10.950146
											CHANNELS 3 Xrotation Yrotation Zrotation
											JOINT LeftHandPinky2
											{
												OFFSET 5.254700 0.000000 0.000000
												CHANNELS 3 Xrotation Yrotation Zrotation
												JOINT LeftHandPinky3
												{
													OFFSET 4.810204 0.000000 0.000000
													CHANNELS 3 Xrotation Yrotation Zrotation
													JOINT LeftHandPinky4
													{
														OFFSET 3.647202 0.000000 0.000000
														CHANNELS 3 Xrotation Yrotation Zrotation
														End Site
														{
															OFFSET 0.000000 0.000000 0.000000
														}
													}
												}
											}
										}
									}
								}
							}
						}
					}
					JOINT RightShoulder
					{
						OFFSET -7.570500 7.247704 -3.868750
						CHANNELS 3 Xrotation Yrotation Zrotation
						JOINT RightShoulder_split
						{
							OFFSET -7.570500 7.247704 -3.868750
							CHANNELS 3 Xrotation Yrotation Zrotation
							JOINT RightArm
							{
								OFFSET -9.308998 -2.777710 0.208500
								CHANNELS 3 Xrotation Yrotation Zrotation
								JOINT RightForeArm
								{
									OFFSET -29.972300 0.000000 0.000000
									CHANNELS 3 Xrotation Yrotation Zrotation
									JOINT RightHand
									{
										OFFSET -26.026505 0.000000 0.000000
										CHANNELS 3 Xrotation Yrotation Zrotation
										JOINT RightHandThumb1
										{
											OFFSET -12.240601 -7.148026 9.207092
											CHANNELS 3 Xrotation Yrotation Zrotation
											JOINT RightHandThumb2
											{
												OFFSET -4.138618 -2.389435 2.389433
												CHANNELS 3 Xrotation Yrotation Zrotation
												JOINT RightHandThumb3
												{
													OFFSET -2.726974 -1.574417 1.574421
													CHANNELS 3 Xrotation Yrotation Zrotation
													JOINT RightHandThumb4
													{
														OFFSET -3.941010 -2.275345 2.275343
														CHANNELS 3 Xrotation Yrotation Zrotation
														End Site
														{
															OFFSET 0.000000 0.000000 0.000000
														}
													}
												}
											}
										}
										JOINT RightHandIndex1
										{
											OFFSET -24.424698 -1.985657 5.953444
											CHANNELS 3 Xrotation Yrotation Zrotation
											JOINT RightHandIndex2
											{
												OFFSET -6.426697 0.000000 0.000000
												CHANNELS 3 Xrotation Yrotation Zrotation
												JOINT RightHandIndex3
												{
													OFFSET -5.337898 0.000000 0.000000
													CHANNELS 3 Xrotation Yrotation Zrotation
													JOINT RightHandIndex4
													{
														OFFSET -4.409401 0.000000 0.000000
														CHANNELS 3 Xrotation Yrotation Zrotation
														End Site
														{
															OFFSET 0.000000 0.000000 0.000000
														}
													}
												}
											}
										}
										JOINT RightHandMiddle1
										{
											OFFSET -23.810097 0.000000 0.000000
											CHANNELS 3 Xrotation Yrotation Zrotation
											JOINT RightHandMiddle2
											{
												OFFSET -7.176498 0.000000 0.000000
												CHANNELS 3 Xrotation Yrotation Zrotation
												JOINT RightHandMiddle3
												{
													OFFSET -6.774902 0.000000 0.000000
													CHANNELS 3 Xrotation Yrotation Zrotation
													JOINT RightHandMiddle4
													{
														OFFSET -5.403328 0.000000 0.000000
														CHANNELS 3 Xrotation Yrotation Zrotation
														End Site
														{
															OFFSET 0.000000 0.000000 0.000000
														}
													}
												}
											}
										}
										JOINT RightHandRing1
										{
											OFFSET -22.908302 -0.839325 -6.020576
											CHANNELS 3 Xrotation Yrotation Zrotation
											JOINT RightHandRing2
											{
												OFFSET -6.337502 0.000000 0.000000
												CHANNELS 3 Xrotation Yrotation Zrotation
												JOINT RightHandRing3
												{
													OFFSET -5.779297 0.000000 0.000000
													CHANNELS 3 Xrotation Yrotation Zrotation
													JOINT RightHandRing4
													{
														OFFSET -4.965698 0.000000 0.000000
														CHANNELS 3 Xrotation Yrotation Zrotation
														End Site
														{
															OFFSET 0.000000 0.000000 0.000000
														}
													}
												}
											}
										}
										JOINT RightHandPinky1
										{
											OFFSET -20.037003 -1.530334 -10.950259
											CHANNELS 3 Xrotation Yrotation Zrotation
											JOINT RightHandPinky2
											{
												OFFSET -5.254700 0.000000 0.000000
												CHANNELS 3 Xrotation Yrotation Zrotation
												JOINT RightHandPinky3
												{
													OFFSET -4.810204 0.000000 0.000000
													CHANNELS 3 Xrotation Yrotation Zrotation
													JOINT RightHandPinky4
													{
														OFFSET -3.647202 0.000000 0.000000
														CHANNELS 3 Xrotation Yrotation Zrotation
														End Site
														{
															OFFSET 0.000000 0.000000 0.000000
														}
													}
												}
											}
										}
									}
								}
							}
						}
					}
				}
			}
		}
	}
	JOINT LeftUpLeg
	{
		OFFSET 15.427100 -6.655098 0.678600
		CHANNELS 3 Xrotation Yrotation Zrotation
		JOINT LeftLeg
		{
			OFFSET 4.081073 -39.591068 13.024000
			CHANNELS 3 Xrotation Yrotation Zrotation
			JOINT LeftFoot
			{
				OFFSET -4.081074 -37.707932 -15.979700
				CHANNELS 3 Xrotation Yrotation Zrotation
				JOINT LeftToeBase
				{
					OFFSET 5.346399 -15.068900 20.645000
					CHANNELS 3 Xrotation Yrotation Zrotation
					JOINT LeftToe_End
					{
						OFFSET 2.754700 0.931300 11.300900
						CHANNELS 3 Xrotation Yrotation Zrotation
						End Site
						{
							OFFSET 0.000000 0.000000 0.000000
						}
					}
				}
			}
		}
	}
	JOINT RightUpLeg
	{
		OFFSET -15.569500 -6.655098 0.678600
		CHANNELS 3 Xrotation Yrotation Zrotation
		JOINT RightLeg
		{
			OFFSET -4.081825 -39.591045 13.023800
			CHANNELS 3 Xrotation Yrotation Zrotation
			JOINT RightFoot
			{
				OFFSET 4.081824 -37.707954 -15.979600
				CHANNELS 3 Xrotation Yrotation Zrotation
				JOINT RightToeBase
				{
					OFFSET -5.346400 -15.068900 20.645000
					CHANNELS 3 Xrotation Yrotation Zrotation
					JOINT RightToe_End
					{
						OFFSET -2.754700 0.931300 11.300900
						CHANNELS 3 Xrotation Yrotation Zrotation
						End Site
						{
							OFFSET 0.000000 0.000000 0.000000
						}
					}
				}
			}
		}
	}
}
MOTION
Frames: 4
Frame Time: 0.016667
0.146719 80.089493 -0.585443 -10.683276 -53.648366 -2.320325 6.704560 0.922915 -2.753182 13.440118 1.505914 -5.282123 0.000000 0.000000 0.000000 13.440116 1.505927 -5.282122 3.996212 2.607473 -0.466377 -8.638509 40.681331 -5.376926 0.000001 -0.000000 0.000000 -0.177270 -6.033951 5.204532 0.000000 0.000000 0.000000 -21.071661 17.785761 -57.231487 -0.000003 -126.318748 0.000001 -6.641490 -5.398315 -3.626834 -2.154142 6.800155 9.892485 25.836106 36.182432 -25.085202 4.659088 20.247628 19.841575 0.000003 -0.000000 -0.000000 20.887357 7.645958 -92.409625 7.469760 5.623445 -106.086847 5.011195 5.790671 -81.733008 0.000000 -0.000000 -0.000001 12.668630 7.118938 -99.980459 7.120942 5.712063 -102.555994 4.565663 5.708603 -77.288016 0.000002 -0.000001 0.000000 5.682282 8.252722 -95.779456 8.216150 5.353272 -113.878747 3.072436 5.151214 -61.606121 0.000000 0.000003 0.000002 -3.644696 8.906835 -93.940045 7.168192 5.701402 -103.031068 6.923509 5.752276 -100.579494 0.000001 0.000002 -0.000001 10.920036 26.931045 3.130399 0.000000 0.000000 0.000000 -46.478174 38.185860 48.496092 -0.000002 110.564493 -0.000009 -26.511564 16.043013 15.588630 -8.123075 -3.695117 -18.700518 26.149340 -37.962086 25.226199 5.914699 -26.474927 -20.697066 0.000003 0.000000 -0.000001 19.570620 -6.576477 91.648516 5.944050 -4.476220 106.057668 3.989512 -4.609164 81.748622 -0.000002 0.000000 -0.000004 11.200853 -5.955895 99.192679 5.666705 -4.546670 102.532710 3.635292 -4.543919 77.311574 -0.000000 -0.000001 -0.000001 4.287415 -6.986213 95.001600 6.537647 -4.261404 113.838141 2.447714 -4.100721 61.652033 0.000002 0.000001 0.000002 -5.006105 -7.516078 93.188137 5.704276 -4.538204 103.006957 5.509741 -4.578621 100.559714 0.000001 -0.000003 -0.000001 -23.680833 13.542994 23.466030 38.770695 -5.719376 -1.759428 -5.507392 2.800326 -17.134674 -2.483934 0.000010 0.000001 0.000000 -0.000000 -0.000000 -23.526781 0.509295 -23.974278 49.497729 5.410732 -7.103825 -17.680713 -4.772993 18.315118 -2.290964 0.000028 0.000001 0.000000 0.000000 0.000000 
-0.424006 80.172600 -1.300279 -10.906666 -53.170455 -1.835912 6.886421 0.476546 -3.467446 13.428630 1.385305 -5.296942 0.000000 0.000000 0.000000 13.420766 1.411924 -5.309469 4.071266 2.649587 -0.515530 -6.896898 40.845166 -6.341601 -0.000001 0.000000 0.000000 -0.474783 -6.155476 3.198672 0.000000 0.000000 0.000000 -17.792057 18.997982 -56.886009 -0.000006 -127.660662 0.000008 -8.813688 -2.100046 4.977261 -2.188141 6.630870 9.840797 25.854675 36.200057 -25.080868 4.657103 20.274472 19.846861 0.000007 0.000001 0.000001 20.610391 7.814799 -91.789253 7.445545 5.630331 -105.840017 4.988339 5.787329 -81.506601 -0.000000 0.000001 -0.000002 12.580240 7.208629 -99.250189 7.098235 5.717043 -102.328043 4.544092 5.703710 -77.071049 0.000001 -0.000000 -0.000001 5.709286 8.240795 -95.092810 8.194816 5.362633 -113.650352 3.053765 5.141109 -61.397848 -0.000001 -0.000001 0.000001 -3.440402 8.797276 -93.391738 7.145260 5.706645 -102.800330 6.901078 5.756387 -100.355792 -0.000001 -0.000003 0.000001 10.865834 26.827595 2.963929 0.000000 0.000000 0.000000 -46.847895 38.723590 50.356574 0.000031 107.879477 -0.000060 -24.744573 13.727467 13.795261 -8.127554 -3.556528 -18.647082 26.048253 -37.885031 25.176147 5.904364 -26.366017 -20.675935 0.000004 -0.000001 -0.000001 19.390028 -6.733564 91.056155 5.924107 -4.481880 105.802355 3.970780 -4.606416 81.515480 -0.000002 0.000000 -0.000001 11.102779 -6.063366 98.288533 5.648055 -4.550756 102.297656 3.617457 -4.539885 77.086341 0.000001 0.000000 0.000001 4.274393 -6.978794 94.402421 6.520049 -4.269106 113.601660 2.432252 -4.092355 61.435557 0.000000 -0.000000 -0.000002 -4.791123 -7.407631 92.634932 5.686479 -4.542247 102.782374 5.490850 -4.582096 100.323369 -0.000001 0.000001 -0.000001 -23.046605 13.356083 22.688473 37.612049 -6.216814 -1.187805 -4.656791 3.560922 -17.683857 -3.903659 0.000002 0.000007 0.000000 0.000004 0.000000 -23.385796 0.342447 -23.979874 50.338894 4.940966 -6.901006 -18.935216 -5.030699 16.313086 -2.008444 0.000013 0.000007 -0.000000 -0.000001 -0.000000 
-0.987075 80.371750 -2.293896 -10.733182 -52.142876 -1.095317 7.707271 0.259525 -4.249688 13.471025 1.247501 -5.375648 0.000000 0.000000 0.000000 13.463742 1.291654 -5.383122 3.970779 2.575110 -0.513150 -6.939622 39.500295 -7.024656 0.000001 -0.000000 0.000000 -0.604219 -6.510280 2.042945 0.000000 0.000000 0.000000 -15.274325 19.486412 -56.458088 0.000004 -128.879618 0.000003 -13.542280 1.471575 15.982706 -2.260590 6.272428 9.731075 25.893611 36.237213 -25.070928 4.652662 20.331240 19.858012 0.000003 -0.000001 0.000001 20.016832 8.154987 -90.469318 7.394028 5.644641 -105.315383 4.939924 5.779907 -81.025885 -0.000003 0.000002 -0.000001 12.388805 7.393816 -97.702038 7.049959 5.727335 -101.843742 4.498372 5.693078 -76.610598 0.000001 0.000002 0.000000 5.767031 8.220491 -93.638246 8.149339 5.382205 -113.164862 3.014274 5.119471 -60.956406 0.000004 0.000000 0.000000 -3.004441 8.580139 -92.228024 7.096476 5.717426 -102.310285 6.853384 5.764850 -99.880766 -0.000002 -0.000000 -0.000000 10.874066 26.686423 2.331216 0.000000 0.000000 0.000000 -47.669878 38.728966 52.535664 -0.000014 105.112670 0.000035 -23.149347 9.982418 13.220413 -8.137358 -3.262901 -18.533819 25.834275 -37.721164 25.070346 5.882203 -26.134961 -20.631135 -0.000002 -0.000001 0.000002 19.001462 -7.055781 89.797030 5.881608 -4.493649 105.259246 3.930998 -4.600341 81.019854 0.000001 -0.000002 -0.000000 10.888988 -6.283852 96.371503 5.608354 -4.559209 101.797686 3.579628 -4.531068 76.607853 0.000000 -0.000004 -0.000003 4.247075 -6.963867 93.132457 6.482523 -4.285255 113.098377 2.399519 -4.074429 60.976172 -0.000002 0.000001 0.000001 -4.332487 -7.193224 91.460099 5.648649 -4.550647 102.304704 5.450696 -4.589192 99.820940 0.000001 -0.000002 0.000002 -22.680611 12.481078 21.856219 36.070591 -5.866975 -0.354129 -3.211388 3.619024 -18.801115 -5.669399 0.000005 0.000000 0.000000 -0.000003 -0.000000 -23.079568 0.083336 -23.832246 50.876959 4.576550 -6.522099 -19.837169 -5.779730 14.709157 -1.965096 0.000001 -0.000003 0.000000 -0.000001 0.000000 
-1.503235 80.556854 -3.367182 -10.381415 -50.655186 -0.294055 9.087230 0.213847 -4.978380 13.571645 1.134037 -5.519533 0.000000 0.000000 0.000000 13.568762 1.181516 -5.516784 3.692150 2.416219 -0.492109 -8.158106 37.043483 -7.461723 -0.000001 -0.000000 -0.000000 -0.610947 -7.055519 1.499508 0.000000 0.000000 0.000000 -13.733022 19.141728 -55.614423 0.000007 -129.834601 -0.000003 -19.817044 3.436067 27.557057 -2.360259 5.784476 9.581074 25.946454 36.287767 -25.056978 4.646442 20.408527 19.873182 0.000003 -0.000000 0.000001 19.194860 8.579328 -88.660056 7.323516 5.663379 -104.599860 4.873984 5.769183 -80.370624 0.000001 0.000003 -0.000001 12.119564 7.635048 -95.591380 6.983961 5.740697 -101.183317 4.436208 5.678006 -75.983157 0.000003 0.000001 -0.000001 5.846708 8.203636 -91.657444 8.087072 5.408312 -112.502634 2.960783 5.089521 -60.355090 0.000001 -0.000000 -0.000001 -2.404213 8.317301 -90.638775 7.029836 5.731498 -101.642183 6.788284 5.775752 -99.233155 -0.000001 -0.000000 0.000000 10.915532 26.508842 1.381153 0.000000 0.000000 0.000000 -49.008796 38.270144 54.704986 0.000083 102.389488 -0.000072 -21.485299 5.843200 12.774807 -8.151686 -2.862870 -18.379844 25.543965 -37.497223 24.927977 5.851857 -25.820058 -20.570045 0.000002 -0.000002 0.000001 18.460336 -7.470857 88.074326 5.823456 -4.509082 104.518218 3.876846 -4.591476 80.343884 -0.000000 0.000001 -0.000000 10.585444 -6.567974 93.757570 5.554087 -4.570175 101.115575 3.528162 -4.518548 75.955412 0.000002 0.000001 -0.000002 4.210453 -6.945319 91.402534 6.431079 -4.306791 112.411650 2.355195 -4.049552 60.350069 0.000004 0.000000 -0.000002 -3.701458 -6.935044 89.854970 5.596853 -4.561591 101.653084 5.395793 -4.598345 99.135715 0.000002 0.000001 -0.000001 -23.370722 10.828867 21.313040 35.089776 -5.439236 0.694038 0.258032 2.871545 -20.997810 -7.236292 0.000016 0.000004 0.000000 0.000003 0.000000 -22.624153 -0.288694 -23.631828 51.313777 4.314392 -5.965284 -20.771645 -6.943086 13.019185 -2.082040 0.000002 -0.000000 0.000000 -0.000000 -0.000000 
